# xmcd CD database file
#
# Track frame offsets:
#	150
#	12300
#	24638
#	36315
#	48490
#	60715
#	76255
#	97140
#	112240
#	130802
#	145074
#	156436
#	167069
#	181271
#	195746
#	212978
#	234061
#	253119
#	266517
#	288632
#	304542
#	322568
#	334170
#
# Disc length: 4628 seconds
#
# Revision: 3
# Processed by: cddbd v1.5.2PL0 Copyright (c) Steve Scherf et al.
# Submitted via: CDex 1.70beta2
#
DISCID=4b121217
DTITLE=Various Artist - Dette er Country Ballader - CD 2
DYEAR=2001
DGENRE=Country
TTITLE0=Loretta Lynn - As soon as I hang up the phone - (1974)
TTITLE1=Kenny Rogers - Ruben James - (1969)
TTITLE2=Freddy Fender - Before the next teardrop falls - (1975)
TTITLE3=Brenda Lee - I'm sorry - (1960)
TTITLE4=Hank Williams - Long gone lonesome blues - (1964)
TTITLE5=Billy Ray Cyrus  - She's not crying anymore - (1992)
TTITLE6=Willie Nelson  - I just can't let you say good-bye - (1998)
TTITLE7=Stephen Ackles - Rain, rain, rain,cry, cry, cry - (1995)
TTITLE8=Tracy Byrd  - The keeper of the stars
TTITLE9=Rank Strangers  - Early morning rain - (1969)
TTITLE10=Leapy Lee  - Little arrows - (1968)
TTITLE11=Leroy Van Dyke - Walk on bye - (1961)
TTITLE12=Lee Greenwood  - J.O.N. - (1983)
TTITLE13=The Pointer Sisters - Farytale - (1974)
TTITLE14=C. W. McCall  - Convoy - (1975)
TTITLE15=Kelly Willis - Sincerly (too late to turn back now) - (1991)
TTITLE16=Bretteville - You plant your fields - (1996)
TTITLE17=Dr. Hook  - Pity the fool - (1982)
TTITLE18=Todd Snider  - Enough - (1996)
TTITLE19=Tom Jones  - Detroit City - (1967)
TTITLE20=Vince Gill  - I still belive in you
TTITLE21=The Oak Ridge Boys - Thank God for kids
TTITLE22=Waylon Jennings  - If ole Hank could only see us now - (1987)
EXTD=Universal Music AS Norway YEAR: 2001
EXTT0=
EXTT1=
EXTT2=
EXTT3=
EXTT4=
EXTT5=
EXTT6=
EXTT7=
EXTT8=
EXTT9=
EXTT10=
EXTT11=
EXTT12=
EXTT13=
EXTT14=
EXTT15=
EXTT16=
EXTT17=
EXTT18=
EXTT19=
EXTT20=
EXTT21=
EXTT22=
PLAYORDER=
